<?xml version="1.0" encoding="UTF-8" standalone="no"?>
<svg width="600px" height="120px" viewBox="0 0 600 120" version="1.1" xmlns="http://www.w3.org/2000/svg" xmlns:xlink="http://www.w3.org/1999/xlink">
    <!-- Generator: Sketch 41.2 (35397) - http://www.bohemiancoding.com/sketch -->
    <title>Group 5 Copy</title>
    <desc>Created with Sketch.</desc>
    <defs></defs>
    <g id="Page-1" stroke="none" stroke-width="1" fill="none" fill-rule="evenodd">
        <g id="Group-5-Copy">
            <rect id="Rectangle-4" fill="#CCCCCC" x="0" y="0" width="600" height="120" rx="10"></rect>
            <path d="M255.35,60.55 L255.35,39.15 L217.15,39.15 L217.15,44.15 L250.05,44.15 L250.05,55.55 L224.55,55.55 L224.55,48.95 L219.3,48.95 L219.3,74.9 C219.3,79.35 221.4,81.6 225.7,81.6 L253.55,81.6 C255.55,81.5 257.15,80.9 258.35,79.8 C259.35,78.7 260.2,74.95 260.85,68.55 L255.75,66.95 C255.45,72.05 255,75 254.3,75.7 C253.6,76.3 252.85,76.6 252.05,76.6 L227.15,76.6 C225.4,76.6 224.55,75.7 224.55,73.9 L224.55,60.55 L255.35,60.55 Z M286.3,38.5 L286.3,43.4 L295.8,43.4 C295.6,44.75 295.4,46.1 295.15,47.4 L288,47.4 L288,72.35 L293.1,72.35 L293.1,52.2 L304.35,52.2 L304.35,71.85 L309.45,71.85 L309.45,47.4 L300.25,47.4 C300.5,46.1 300.7,44.8 300.9,43.4 L310.4,43.4 L310.4,38.5 L286.3,38.5 Z M303.05,71.5 L299.55,74.85 C303.05,77.95 305.7,80.8 307.6,83.5 L311.35,79.75 C309.05,77 306.25,74.25 303.05,71.5 Z M296.2,54.55 L296.2,63.25 C296,67.35 295.25,70.65 293.85,73.15 C292.45,75.5 289.7,77.45 285.7,79.05 L288.45,83.4 C292.75,81.75 295.9,79.4 297.8,76.4 C299.8,73.1 300.9,68.7 301.1,63.25 L301.1,54.55 L296.2,54.55 Z M274.25,37.1 C271.25,42.5 267.95,47.15 264.35,51.1 L267.35,55.3 C271,51.1 274.15,46.7 276.75,42.1 C278.75,44.55 281.3,48.2 284.35,53.1 L287.8,49.4 C284.75,45.15 281.55,41.05 278.15,37.1 L274.25,37.1 Z M267.3,58.7 L267.3,63.55 L280.25,63.55 C278.65,66.5 277.1,69.05 275.6,71.25 C274.25,70.1 272.85,68.95 271.45,67.85 L268,71.2 C273.2,75.45 277.25,79.4 280.1,83.1 L283.8,79.35 C282.35,77.7 280.75,76.05 279,74.4 C281.6,71 283.85,67.2 285.85,63.05 L285.85,58.7 L267.3,58.7 Z M276.7,48.25 L273,50.55 C275,53.35 276.55,55.95 277.7,58.3 L281.4,55.65 C280.3,53.55 278.75,51.05 276.7,48.25 Z M340.65,68.4 C339.35,68.7 338,69.05 336.6,69.4 L336.6,43.35 L339.3,43.35 L339.3,46.25 L341.3,46.25 C342,54.25 344.05,61.6 347.45,68.4 C344.95,72.55 341.75,76.1 337.95,79.05 L341.5,83.15 C344.9,80.45 347.85,77.25 350.35,73.5 C352.5,76.9 355.05,80.1 358,83.15 L361.5,79.05 C358.2,75.95 355.4,72.5 353.15,68.75 C356.35,62.4 358.5,54.8 359.55,46 L359.55,41.25 L339.85,41.25 L339.85,38.45 L315.65,38.45 L315.65,43.35 L319.1,43.35 L319.1,72.6 C317.75,72.8 316.4,72.95 315,73.1 L316.3,78.25 C321.5,77.45 326.6,76.6 331.5,75.6 L331.5,83.05 L336.6,83.05 L336.6,74.55 C337.9,74.25 339.25,73.9 340.65,73.6 L340.65,68.4 Z M346.1,46.25 L354.65,46.25 C353.85,52.5 352.35,58.1 350.2,63.05 C348,57.95 346.6,52.35 346.1,46.25 Z M331.5,70.5 C329.1,71 326.7,71.45 324.2,71.85 L324.2,65.05 L331.5,65.05 L331.5,70.5 Z M324.2,60.35 L324.2,54.2 L331.5,54.2 L331.5,60.35 L324.2,60.35 Z M324.2,49.5 L324.2,43.35 L331.5,43.35 L331.5,49.5 L324.2,49.5 Z" id="已领取" fill="#FFFFFF"></path>
        </g>
    </g>
</svg>