<?xml version="1.0" encoding="UTF-8" standalone="no"?>
<svg width="612px" height="295px" viewBox="0 0 612 295" version="1.1" xmlns="http://www.w3.org/2000/svg" xmlns:xlink="http://www.w3.org/1999/xlink">
    <!-- Generator: Sketch 41.2 (35397) - http://www.bohemiancoding.com/sketch -->
    <title>Combined Shape</title>
    <desc>Created with Sketch.</desc>
    <defs>
        <linearGradient x1="0%" y1="10.7621771%" x2="112.943221%" y2="111.278356%" id="linearGradient-1">
            <stop stop-color="#FEF500" offset="0%"></stop>
            <stop stop-color="#FBF8CC" offset="48.5693507%"></stop>
            <stop stop-color="#F8E81C" offset="100%"></stop>
        </linearGradient>
        <path d="M286.040176,83.919397 C283.433621,100.396629 287.906878,112.454069 299.452358,120.095518 C313.137717,112.454069 320.987732,100.396629 323.009993,83.919397 L324.493491,73.3301507 L287.523673,73.3301507 L286.040176,83.919397 Z M254.518701,73.3301507 L256.18811,61.4172485 L271.588407,61.4172485 L273.754844,45.9745976 L291.359519,45.9745976 L289.196876,61.4172485 L326.1629,61.4172485 L328.329337,45.9745976 L345.934012,45.9745976 L343.767575,61.4172485 L358.731549,61.4172485 L357.06214,73.3301507 L342.098166,73.3301507 L340.925786,81.713304 C338.364761,102.00936 328.761866,117.159133 312.105718,127.15882 C321.795878,131.278128 333.686622,134.370462 347.77795,136.420607 L346.294453,147.009853 C325.620342,143.769178 309.320841,139.653674 297.41492,134.655732 C288.919906,137.843156 273.936961,140.433414 258.066195,143.98218 C253.786438,144.936886 249.461151,146.051344 245.397658,147.264695 C240.264226,148.797549 235.237029,150.657514 228.358306,155.697295 C228.358306,155.697295 231.416359,147.158194 236.329733,143.213852 C241.246901,139.273313 246.160275,137.957264 246.160275,137.957264 C262.763304,133.906421 274.452961,130.981446 284.382149,127.15882 C270.818202,117.159133 265.605094,102.00936 268.746618,81.713304 L269.922792,73.3301507 L254.518701,73.3301507 Z M489.443606,98.750808 L519.6637,98.750808 C519.6637,98.750808 516.025148,126.148201 513.437564,135.767527 C510.815834,145.512372 506.118724,155.283843 502.624348,158.600589 C498.511531,162.499288 492.683777,166.21161 489.515694,167.63416 C486.351406,169.05671 475.735483,172.666334 470.514786,173.655272 C461.697272,175.203341 453.649963,176.116207 442.715335,174.929481 C436.299493,174.096491 425.391424,172.225115 409.987333,169.307748 C406.242545,168.55083 401.769288,167.596124 396.578945,166.44363 L385.568434,163.822944 C354.543988,156.497194 329.741885,151.986114 311.169711,150.289705 C288.534045,148.308025 268.106551,149.719163 249.872053,154.519317 C226.92527,160.563251 212.230678,175.283217 205.795866,198.679213 C205.037043,200.622857 205.351955,201.703082 206.736805,201.919888 C207.457686,202.113872 208.27342,201.509098 209.191595,200.10937 C215.277349,187.656356 229.383854,178.516284 251.507315,172.685352 C265.849055,168.912172 286.151343,167.052208 312.41418,167.109262 C336.472638,167.166316 357.636189,168.661134 375.916216,171.59752 L388.747899,173.449877 C392.185364,173.8949 396.419592,174.621389 401.351936,175.648363 C432.209441,181.467884 455.717753,184.195072 474.878014,180.1138 C479.901417,178.987932 483.672763,178.26905 486.07823,177.439863 L490.608398,175.952652 C499.922941,172.597869 508.873249,167.763483 517.04197,159.85578 C523.378135,153.724363 527.90451,140.274803 530.366888,132.701818 C533.424941,123.287887 538.607697,98.750808 538.607697,98.750808 L570.891788,98.750808 L563.193536,127.129532 C562.49542,132.108456 559.665013,134.599819 554.698522,134.599819 L545.262568,134.599819 L543.517276,147.045227 L561.398922,147.045227 C573.688047,146.718116 580.680594,140.571485 582.357591,128.62435 L592.070515,85.8033244 L491.257191,85.8033244 L489.443606,98.750808 Z M579.374282,55.933586 L580.770514,45.9757387 L562.399429,45.9757387 L561.003196,55.933586 L533.188568,55.933586 L534.584801,45.9757387 L516.209921,45.9757387 L514.813688,55.933586 L489.484203,55.933586 L487.670618,68.8772661 L513.000103,68.8772661 L511.323106,80.8282043 L529.697986,80.8282043 L531.374983,68.8772661 L559.189611,68.8772661 L557.50882,80.8282043 L575.887494,80.8282043 L577.560696,68.8772661 L602.389359,68.8772661 L604.206738,55.933586 L579.374282,55.933586 Z M116.165304,128.889081 C121.302531,120.981379 131.694601,121.970317 131.694601,121.970317 C132.453423,118.935037 132.574835,117.508684 132.574835,114.777693 C132.574835,108.551186 130.985102,103.203312 127.805637,98.7188577 C124.626172,94.245814 121.139384,90.6361895 117.356655,87.9051985 C113.418368,85.0220632 108.269759,82.2111964 101.910829,79.4764018 C115.687246,77.9625656 126.743286,75.4559875 135.075154,71.9604712 C140.982585,69.3816246 146.658575,65.965984 152.110712,61.7135496 C157.56285,57.4649188 161.728784,51.9230611 164.60472,45.09178 C165.515306,42.9655628 166.194452,40.8393456 166.649746,38.7131284 C167.105039,36.5907148 167.332686,34.5405697 167.332686,32.5664969 C167.332686,22.8520805 162.7494,14.9938251 153.590416,8.99553435 C144.423843,2.99724358 133.78895,0 121.670559,0 L120.87759,0 L120.080827,0 C107.207408,0.152144344 95.206635,2.73099098 84.0785074,7.74034351 C72.9465856,12.749696 66.3182736,20.1933581 64.1973656,30.0599188 C64.0456011,30.9689813 63.9317778,31.8057752 63.8596897,32.5664969 C63.7800134,33.3272186 63.7458664,34.0841367 63.7458664,34.8410548 C63.7458664,39.5499223 65.0700111,43.3459237 67.7183006,46.229059 C70.3665901,49.1159979 73.3601437,51.2384115 76.6951673,52.603907 C78.5087524,53.5167731 80.2881904,54.1633865 82.0296874,54.5399438 C83.7711844,54.9203046 85.2470936,55.1104851 86.4612091,55.1104851 C87.3717957,55.1104851 88.0850886,54.9963768 88.6200583,54.7681603 C89.1474397,54.5399438 89.4889097,54.2774948 89.6406741,53.9694025 L89.6406741,53.741186 L89.6406741,53.5167731 C89.6406741,53.3646287 89.602733,53.1744483 89.5268508,52.9462318 C89.4509686,52.7180153 89.261263,52.5316384 88.9615283,52.3756905 C88.6542053,52.0752054 88.1268238,51.6948446 87.3717957,51.2384115 C86.6091794,50.7819785 85.9300335,50.2532769 85.3267699,49.6446995 C84.1126544,48.7318334 83.0540974,47.560322 82.1435107,46.1149507 C81.2367182,44.6733831 80.7814249,42.6612741 80.7814249,40.0786239 L80.7814249,39.8504074 L80.7814249,39.6221908 C80.7814249,38.4088397 80.8952482,37.0813803 81.1228949,35.636009 C81.3505415,34.198245 81.7640996,32.5664969 82.3711574,30.7407647 C84.7918002,23.1525656 89.4509686,17.1580784 96.3410742,12.749696 C103.23118,8.34892089 110.690402,6.14663151 118.718741,6.14663151 L119.174034,6.14663151 L119.625534,6.14663151 L120.080827,6.14663151 L120.53612,6.14663151 C126.89505,6.29877585 131.853953,8.23481263 135.416624,11.9547418 C138.971706,15.6784747 140.754938,20.4215746 140.754938,26.1878452 C140.754938,28.0097738 140.561438,29.9458105 140.185821,31.9959556 C139.80641,34.0461006 139.165205,36.1304781 138.254619,38.2566954 C134.923389,46.4572755 130.90922,53.06034 126.215904,58.0696926 C121.518795,63.0790451 116.673715,66.9511187 111.676871,69.6821096 C105.317941,73.3297703 99.1828634,75.5320597 93.2754325,76.2889778 C87.3717957,77.0496995 82.9023329,77.4262568 79.8746323,77.4262568 C79.419339,77.4262568 78.9640457,77.4680965 78.5087524,77.540365 C78.0572532,77.6202408 77.6778421,77.6544733 77.3743132,77.6544733 C77.0707843,77.6544733 76.8431376,77.696313 76.6951673,77.7685815 C76.5396087,77.8484573 76.4675206,77.8104212 76.4675206,77.6544733 L76.4675206,77.8826898 L76.4675206,78.1109063 L76.4675206,78.3391228 C76.4675206,78.4912672 76.5396087,78.6434115 76.6951673,78.7955559 C77.298431,79.4041332 78.5087524,80.0469431 80.3299257,80.7315926 C82.1435107,81.4124386 84.0367721,82.4394129 86.0059158,83.8049084 C88.4265586,85.4746926 90.6233489,87.8291263 92.5962866,90.864406 C94.5616361,93.9034892 95.548105,98.0760479 95.548105,103.389689 C95.548105,106.276628 95.1269587,109.57816 94.2998425,113.294286 C93.465138,117.018019 92.1409933,121.232417 90.3236141,125.933677 C87.2921194,133.377339 83.5093907,139.980404 78.9640457,145.746675 C74.4224948,151.520552 69.7253853,156.149544 64.8803056,159.641257 C61.7008405,161.915815 58.5555225,163.665475 55.4519397,164.878826 C52.3483568,166.092177 49.5065677,166.700754 46.9341604,166.700754 L46.3650437,166.700754 C46.1411912,166.700754 45.9476915,166.624682 45.7997212,166.472538 L45.2306045,166.472538 L44.6614879,166.472538 C40.7232006,166.016105 37.2022656,164.118104 34.0986828,160.778536 C30.9951,157.438967 28.3809575,153.642966 26.2638435,149.390532 C28.5327219,148.633613 30.5815419,147.115974 32.3951269,144.833808 C34.2125061,142.559251 35.1230928,139.980404 35.1230928,137.093465 C35.1230928,134.514618 33.6054484,132.236257 30.5815419,130.262184 C27.546253,128.291915 24.1391413,127.302976 20.3564126,127.302976 C18.8387682,127.302976 17.2907709,127.531193 15.7010384,127.983822 C14.1113059,128.440255 12.6316026,129.124905 11.2695167,130.033967 C8.84507978,131.555411 7.0277006,133.563716 5.81737918,136.070294 C4.60705776,138.576872 4,141.345899 4,144.381179 C4,145.141901 4.03794111,145.940659 4.11382333,146.769845 C4.19349966,147.610443 4.3794111,148.405397 4.68293999,149.162315 C5.58973252,153.414749 8.20387502,157.51504 12.5177793,161.463185 C16.8354776,165.415135 23.0805844,168.446611 31.2606877,170.572828 C34.8954461,171.48189 38.9437626,172.200772 43.4132254,172.733278 C47.878894,173.265783 52.4621802,173.528232 57.1554955,173.528232 C60.3349605,173.528232 63.5941019,173.379891 66.9253314,173.079406 C70.2527668,172.76751 73.5119081,172.314881 76.6951673,171.710107 C86.3815328,169.739838 95.7378106,165.749852 104.748824,159.755365 C110.971166,155.609432 112.261164,154.179275 118.263448,147.918535 C117.478067,146.667148 116.021128,143.160221 115.11813,140.19721 C114.215131,137.230395 114.438984,131.544 116.165304,128.889081 Z M265.075436,17.5681074 C264.642907,15.9705918 263.997908,14.3692726 263.140439,12.7679534 C261.539324,9.6870304 258.557153,7.25272089 254.197719,5.46882845 C249.834492,3.68113241 245.012177,2.78728439 239.72698,2.78728439 C238.865717,2.78728439 238.004454,2.81771325 237.146984,2.8823746 C236.285721,2.94323234 235.367546,3.03832255 234.381078,3.15623442 C229.467704,3.77622262 224.675741,5.40797071 220.005191,8.0552823 C215.33464,10.7063975 211.646764,14.6127035 208.945357,19.7856112 L208.945357,19.9719881 C206.854802,24.0380457 205.443393,27.9519589 204.707335,31.7061206 C203.967484,35.4678895 203.599455,38.9443878 203.599455,42.1470262 C203.599455,44.2428146 203.690513,46.1522261 203.876425,47.8790644 C204.058542,49.6020991 204.335512,51.0170415 204.707335,52.1276952 C204.950158,53.3600644 205.257481,54.6532913 205.629304,56.007376 L205.257481,56.007376 C205.13607,56.1328951 205.010864,56.1937528 204.889452,56.1937528 L204.521424,56.1937528 C186.089632,60.7504759 171.86551,66.7906064 161.849057,74.3027334 C151.82881,81.818664 145.227057,89.5818291 142.032415,97.5846217 C141.171152,99.6842136 140.526153,101.806627 140.097418,103.95947 C139.66489,106.119919 139.300655,108.24994 139.45242,110.338121 C139.922889,116.781434 140.169507,117.336761 141.986886,122.030414 C142.222121,122.030414 146.517054,122.813958 147.412465,123.141068 C150.880282,124.422884 153.452689,126.343706 155.300421,129.135555 C157.804535,132.923949 157.762799,139.120028 157.762799,139.515603 C166.637225,145.939898 171.679599,146.305044 184.613723,146.187132 C198.128347,146.065417 210.235355,142.185736 220.92716,134.54809 C231.618965,126.90664 236.964867,115.020363 236.964867,98.8778486 L236.964867,96.2913947 C236.964867,95.4317792 236.900367,94.56836 236.778956,93.7049409 C236.65375,92.2291407 236.471633,90.7191081 236.225015,89.1786466 C235.978398,87.6381851 235.674869,86.0672948 235.303046,84.4659756 C234.688401,81.8795217 233.948549,79.3234967 233.094874,76.7979006 C232.229817,74.2723045 231.372347,71.8988527 230.511084,69.6813489 C228.913764,65.8663295 227.437854,62.6941199 226.087151,60.1647202 C224.732653,57.6429277 224.061096,56.3154683 224.061096,56.1937528 C224.182507,56.1937528 226.394474,55.4520491 230.696996,53.9724454 C234.995723,52.4966452 239.72698,50.3438028 244.890765,47.5063108 C250.050756,44.676426 254.812365,41.1314627 259.175593,36.8828319 C263.535027,32.6303975 265.720435,27.7351532 265.720435,22.1894919 C265.720435,20.7136917 265.50417,19.1732303 265.075436,17.5681074 Z M247.747731,39.5605724 C244.613795,42.7670144 241.142183,45.2888069 237.332896,47.1373607 C233.64502,48.9859145 230.264467,50.2182837 227.195031,50.8344683 C224.121801,51.4506529 222.520686,51.7587452 222.403069,51.7587452 C221.784629,50.157426 221.355894,48.6169645 221.109277,47.1373607 C220.741248,45.657757 220.403572,43.8434357 220.096249,41.6867896 C219.788926,39.5301435 219.637162,37.1566917 219.637162,34.5702379 C219.637162,32.4782532 219.758574,30.2911782 220.005191,28.0128167 C220.251808,25.7344551 220.680543,23.4218611 221.295189,21.0826418 C222.403069,16.7693496 224.152154,13.6618014 226.550032,11.7485863 C228.944116,9.84297835 231.493759,8.88446898 234.19896,8.88446898 L234.47593,8.88446898 L234.7529,8.88446898 L235.117135,8.88446898 L235.488958,8.88446898 C238.926423,9.00998806 242.155211,10.0864093 245.167735,12.1213399 C248.176465,14.1524669 250.111462,16.3395418 250.972725,18.6787611 L250.972725,18.865138 C251.587371,20.3409381 251.985753,21.7596841 252.171664,23.1137688 C252.353781,24.471657 252.448634,25.8257417 252.448634,27.1798264 C252.448634,32.2348222 250.881666,36.3579339 247.747731,39.5605724 Z M209.036416,128.975803 C202.82925,137.001418 194.872999,141.014225 185.167663,141.014225 L184.522664,141.014225 L183.691754,141.014225 C174.718682,140.523559 168.143487,137.963731 163.966171,133.342346 C159.788855,128.724765 157.762799,123.148675 157.884211,116.621683 C157.884211,114.035229 158.161181,111.384114 158.715121,108.675944 C159.265267,105.963971 160.096178,103.255802 161.204058,100.543829 C164.641523,92.0427639 170.264395,84.0665967 178.068882,76.6115238 C185.873368,69.1602545 195.180322,64.0786334 205.997333,61.3666605 C206.240156,61.244945 206.486773,61.1802837 206.73339,61.1802837 C206.854802,61.1802837 207.101419,61.119426 207.469448,60.9977105 C210.170855,67.2926827 212.322116,73.0969895 213.923231,78.4068271 C214.534083,80.2591845 215.118376,82.2066321 215.672316,84.2415627 C216.226256,86.2802969 216.746049,88.4103177 217.239284,90.6316251 C217.607313,92.362267 217.884283,94.1195342 218.070194,95.9110339 C218.252312,97.7025335 218.34337,99.4636043 218.34337,101.190443 C218.34337,111.688402 215.243581,120.946386 209.036416,128.975803 Z M152.4021,133.11489 C151.316984,129.946484 149.059488,128.08652 145.857258,127.299173 C145.603053,127.234511 145.348848,127.177457 145.090848,127.1166 L144.377555,127.1166 L142.943381,127.1166 C142.203529,127.325798 141.440913,127.466532 140.72762,127.744195 C138.610506,128.569578 137.062509,130.033967 136.053276,132.072702 C136.022923,132.137363 135.981187,132.198221 136.000158,132.163988 C135.332394,131.357623 134.721543,130.448561 133.94375,129.710661 C132.839663,128.668472 131.504136,127.987626 130.088933,127.645301 C127.285085,126.964455 124.173914,127.652908 121.961947,129.706857 C120.444303,131.117996 119.514746,132.833423 119.230187,134.894979 C119.218805,134.963444 119.180864,135.028105 119.154305,135.09657 L119.154305,137.336896 C119.298481,137.956884 119.40851,138.58448 119.58304,139.193057 C120.000392,140.657446 120.637802,141.992513 121.419389,143.2439 C122.102329,144.339339 122.891504,145.370117 123.748973,146.359056 C126.211352,149.207958 129.147993,151.524356 132.099812,153.825539 C133.38981,154.833495 134.702572,155.814827 136.003952,156.811372 C136.095011,156.879837 136.159511,156.978731 136.235393,157.06241 L136.41751,157.06241 C137.400185,156.248438 138.386654,155.442073 139.369329,154.624297 C141.960706,152.471455 144.54829,150.322416 146.87408,147.872892 C148.907724,145.735264 150.671985,143.407455 151.829189,140.665053 C152.330012,139.478328 152.67907,138.253566 152.785305,136.964142 C152.796687,136.850034 152.842217,136.735926 152.868776,136.621817 L152.868776,136.374583 L152.868776,135.187857 C152.717011,134.4956 152.629747,133.780522 152.4021,133.11489 Z M407.194867,126.767048 L417.135438,55.8677836 L440.70825,55.8677836 L442.461129,43.3577149 L457.250574,43.3577149 L455.501489,55.8677836 L479.074301,55.8677836 L471.474696,110.088224 C470.438904,121.829964 464.577002,127.39084 453.881403,126.767048 L445.560918,126.767048 L442.313159,149.938632 L427.516126,149.938632 L430.767679,126.767048 L407.194867,126.767048 Z M463.647445,66.9895351 L453.938315,66.9895351 L451.407643,85.0642832 L461.109185,85.0642832 L463.647445,66.9895351 Z M451.278643,115.645296 C455.235901,115.957192 457.390956,113.792939 457.73622,109.160144 L459.553599,96.1860348 L449.848263,96.1860348 L447.116503,115.645296 L451.278643,115.645296 Z M429.902622,66.9895351 L427.368156,85.0642832 L436.614404,85.0642832 L439.14887,66.9895351 L429.902622,66.9895351 Z M423.084604,115.645296 L432.327059,115.645296 L435.058819,96.1860348 L425.808776,96.1860348 L423.084604,115.645296 Z M390.13275,60.5043824 C390.292103,54.9435067 389.404281,49.2304865 387.454108,43.3577149 L400.862496,43.3577149 C402.854404,48.9185906 404.053343,54.639218 404.466901,60.5043824 L390.13275,60.5043824 Z M406.246339,117.037417 C402.497758,115.181256 399.102028,113.02461 396.062945,110.548461 L390.542514,149.938632 L374.823512,149.938632 L380.283238,111.012501 C376.151451,114.104835 371.420194,117.037417 366.104645,119.817855 L367.664024,108.696103 C380.271855,97.8862478 388.808605,86.4526003 393.274274,74.4065719 L374.318895,74.4065719 L375.946569,62.8207801 L411.53533,62.8207801 L410.044245,73.4784914 C406.102163,81.8198051 402.190435,88.768998 398.335618,94.3298738 C401.074966,98.9664727 404.208902,102.983083 407.737425,106.379706 L406.246339,117.037417 Z M5.0625,285.625 L5.0625,223.46875 L67.21875,223.46875 L67.21875,274.65625 C67.4062509,282.156287 63.7500375,285.812501 56.25,285.625 L5.0625,285.625 Z M55.125,231.34375 L17.15625,231.34375 L17.15625,278.3125 L50.625,278.3125 C53.625015,278.3125 55.125,276.812515 55.125,273.8125 L55.125,231.34375 Z M20.53125,249.34375 L29.53125,249.34375 L29.53125,242.875 L19.40625,242.875 L19.40625,235.5625 L52.59375,235.5625 L52.59375,242.875 L41.34375,242.875 L41.34375,249.34375 L51.46875,249.34375 L51.46875,256.9375 L41.34375,256.9375 L41.34375,267.0625 L53.15625,267.0625 L53.15625,274.65625 L18.84375,274.65625 L18.84375,267.0625 L29.53125,267.0625 L29.53125,256.9375 L20.53125,256.9375 L20.53125,249.34375 Z M50.0625,258.0625 C51.3750066,260.500012 52.3124972,263.124986 52.875,265.9375 L44.4375,265.9375 C44.0624981,263.499988 43.3125056,260.875014 42.1875,258.0625 L50.0625,258.0625 Z M101.1875,248.21875 C104.187515,251.781268 105.6875,256.281223 105.6875,261.71875 C105.6875,271.468799 101.562541,276.34375 93.3125,276.34375 L93.3125,267.90625 C95.7500122,267.90625 96.96875,265.656272 96.96875,261.15625 C97.1562509,255.906224 95.750015,251.687516 92.75,248.5 C94.6250094,243.624976 95.5625,238.18753 95.5625,232.1875 L91.90625,232.1875 L91.90625,287.03125 L82.0625,287.03125 L82.0625,224.03125 L105.6875,224.03125 L105.6875,232.1875 C104.749995,238.750033 103.25001,244.093729 101.1875,248.21875 Z M105.6875,249.34375 L105.6875,241.46875 L145.90625,241.46875 L145.90625,249.34375 L131.28125,249.34375 L131.28125,276.625 C131.468751,283.187533 128.000036,286.375001 120.875,286.1875 L114.40625,286.1875 L114.40625,278.875 L116.9375,278.875 C119.00001,279.062501 119.937501,278.031261 119.75,275.78125 L119.75,249.34375 L105.6875,249.34375 Z M108.5,225.15625 L142.8125,225.15625 L142.8125,233.03125 L108.5,233.03125 L108.5,225.15625 Z M104.5625,281.6875 L104.5625,273.53125 C107.375014,268.843727 108.78125,262.562539 108.78125,254.6875 L118.34375,254.6875 C118.34375,268.000067 113.750046,276.999977 104.5625,281.6875 Z M146.1875,281.6875 C136.999954,276.812476 132.593748,267.812566 132.96875,254.6875 L141.96875,254.6875 C141.96875,262.937541 143.374986,269.218728 146.1875,273.53125 L146.1875,281.6875 Z M215.03125,224.875 L215.03125,239.78125 C215.218751,246.906286 211.937534,250.46875 205.1875,250.46875 L165.25,250.46875 L165.25,224.875 L215.03125,224.875 Z M177.0625,233.3125 L177.0625,242.03125 L199.84375,242.03125 C202.281262,242.218751 203.406251,241.000013 203.21875,238.375 L203.21875,233.3125 L177.0625,233.3125 Z M187.75,254.40625 L187.75,275.5 C187.937501,282.062533 184.656284,285.250001 177.90625,285.0625 L159.625,285.0625 L159.625,254.40625 L187.75,254.40625 Z M170.03125,262.84375 L170.03125,277.75 L173.96875,277.75 C176.406262,277.937501 177.531251,276.906261 177.34375,274.65625 L177.34375,262.84375 L170.03125,262.84375 Z M220.65625,254.40625 L220.65625,275.5 C220.843751,282.062533 217.656283,285.250001 211.09375,285.0625 L191.96875,285.0625 L191.96875,254.40625 L220.65625,254.40625 Z M202.65625,262.84375 L202.65625,277.75 L206.875,277.75 C209.312512,277.937501 210.437501,276.906261 210.25,274.65625 L210.25,262.84375 L202.65625,262.84375 Z M259.40625,275.21875 L259.40625,267.34375 L262.78125,267.34375 L262.78125,262.28125 C265.031261,261.156244 266.906243,259.937507 268.40625,258.625 L261.09375,258.625 L261.09375,226 L270.65625,226 C271.031252,224.874994 271.312499,223.562508 271.5,222.0625 L283.3125,222.0625 C283.124999,222.812504 282.843752,223.656245 282.46875,224.59375 C282.281249,225.343754 282.1875,225.812499 282.1875,226 L297.9375,226 L297.9375,248.5 C298.125001,255.437535 295.031282,258.812501 288.65625,258.625 L279.9375,258.625 C279.562498,259.187503 279.187502,259.656248 278.8125,260.03125 L287.53125,260.03125 L287.53125,267.34375 L299.90625,267.34375 L299.90625,275.21875 L287.53125,275.21875 L287.53125,286.46875 L276.5625,286.46875 L276.5625,275.21875 L259.40625,275.21875 Z M236.625,263.40625 L236.625,224.59375 L246.1875,224.59375 L246.1875,238.9375 L248.71875,238.9375 L248.71875,222.90625 L257.71875,222.90625 L257.71875,238.9375 L259.40625,238.9375 L259.40625,246.53125 L246.1875,246.53125 L246.1875,252.15625 L257.71875,252.15625 L257.71875,285.90625 L248.71875,285.90625 L248.71875,259.75 L246.1875,259.75 L246.1875,260.03125 C246.750003,273.531318 242.718793,282.624977 234.09375,287.3125 L234.09375,279.4375 C235.781258,275.874982 236.625,270.531286 236.625,263.40625 Z M285.84375,251.03125 C288.093761,251.218751 289.125001,250.187511 288.9375,247.9375 L288.9375,245.6875 L284.4375,245.6875 C284.4375,247.75001 284.250002,249.531242 283.875,251.03125 L285.84375,251.03125 Z M276.5625,262 C274.312489,263.687508 271.21877,265.468741 267.28125,267.34375 L276.5625,267.34375 L276.5625,262 Z M270.09375,233.59375 L270.09375,238.65625 L274.59375,238.65625 L274.59375,233.59375 L270.09375,233.59375 Z M288.9375,233.59375 L284.4375,233.59375 L284.4375,238.65625 L288.9375,238.65625 L288.9375,233.59375 Z M273.75,251.03125 C274.125002,249.718743 274.3125,247.937511 274.3125,245.6875 L270.09375,245.6875 L270.09375,251.03125 L273.75,251.03125 Z M334.71875,222.625 C334.156247,225.250013 333.593753,227.687489 333.03125,229.9375 L342.59375,229.9375 L342.59375,274.9375 C342.781251,281.500033 339.687532,284.687501 333.3125,284.5 L313.34375,284.5 L313.34375,229.9375 L321.5,229.9375 C321.875002,228.812494 322.343747,227.031262 322.90625,224.59375 C323.093751,223.656245 323.1875,223.000002 323.1875,222.625 L334.71875,222.625 Z M343.4375,238.375 C347.000018,235.187484 349.062497,229.843787 349.625,222.34375 L360.875,222.34375 C360.687499,223.281255 360.500001,224.593742 360.3125,226.28125 C359.937498,227.406256 359.75,228.249997 359.75,228.8125 L375.21875,228.8125 L375.21875,276.0625 C375.406251,282.625033 372.031285,285.812501 365.09375,285.625 L354.6875,285.625 L354.6875,278.3125 L360.03125,278.3125 C362.656263,278.500001 363.875001,277.187514 363.6875,274.375 L363.6875,236.96875 L355.8125,236.96875 C353.187487,240.718769 349.062528,243.531241 343.4375,245.40625 L343.4375,238.375 Z M349.625,265.9375 C348.874996,258.999965 347.46876,252.53128 345.40625,246.53125 L354.6875,246.53125 C357.125012,252.156278 358.999993,258.624963 360.3125,265.9375 L349.625,265.9375 Z M331.625,273.53125 L331.625,260.3125 L324.3125,260.3125 L324.3125,277.1875 L328.8125,277.1875 C330.87501,277.375001 331.812501,276.156263 331.625,273.53125 Z M324.3125,237.8125 L324.3125,252.4375 L331.625,252.4375 L331.625,237.8125 L324.3125,237.8125 Z M398.78125,287.03125 L398.78125,265.9375 L392.875,266.78125 C390.999991,266.968751 389.593755,267.156249 388.65625,267.34375 L388.65625,257.78125 C391.468764,257.593749 394.84373,257.312502 398.78125,256.9375 L398.78125,239.78125 L396.25,239.78125 C395.124994,245.218777 392.312523,249.343736 387.8125,252.15625 L387.8125,244.28125 C389.500008,240.531231 390.250001,234.343793 390.0625,225.71875 L397.375,225.71875 C397.375,228.156262 397.281251,230.312491 397.09375,232.1875 L398.78125,232.1875 L398.78125,222.0625 L410.03125,222.0625 L410.03125,232.1875 L413.40625,232.1875 L413.40625,239.78125 L410.03125,239.78125 L410.03125,254.96875 C410.406252,254.781249 411.156244,254.593751 412.28125,254.40625 C412.843753,254.218749 413.218749,254.125 413.40625,254.125 L413.40625,262 L410.875,262.84375 C410.499998,263.031251 410.218751,263.125 410.03125,263.125 L410.03125,287.03125 L398.78125,287.03125 Z M416.5,234.71875 L416.5,226.84375 L427.46875,226.84375 L427.46875,222.0625 L439.5625,222.0625 L439.5625,226.84375 L450.8125,226.84375 L450.8125,234.71875 L439.5625,234.71875 L439.5625,242.03125 L453.625,242.03125 L453.625,250.46875 L413.96875,250.46875 L413.96875,242.03125 L427.46875,242.03125 L427.46875,234.71875 L416.5,234.71875 Z M447.71875,252.4375 L447.71875,256.375 L453.0625,256.375 L453.0625,264.25 L447.71875,264.25 L447.71875,276.90625 C447.531249,282.90628 444.531279,285.999999 438.71875,286.1875 L429.15625,286.1875 L429.15625,278.875 L433.375,278.875 C435.250009,279.062501 436.1875,277.937512 436.1875,275.5 L436.1875,264.25 L414.8125,264.25 L414.8125,256.375 L436.1875,256.375 L436.1875,252.4375 L447.71875,252.4375 Z M425.78125,266.5 C427.656259,270.250019 428.874997,274.09373 429.4375,278.03125 L418.75,278.03125 C418.562499,275.406237 417.625008,271.562525 415.9375,266.5 L425.78125,266.5 Z M499.125,256.9375 L499.125,246.53125 L510.9375,246.53125 L510.9375,254.125 C510.9375,257.875019 510.656253,261.156236 510.09375,263.96875 L530.90625,263.96875 L530.90625,271.5625 L514.03125,271.5625 C517.031265,275.687521 522.468711,278.593742 530.34375,280.28125 L530.34375,286.75 C518.156189,284.499989 509.531275,280.750026 504.46875,275.5 C499.031223,280.937527 486.562598,284.68749 467.0625,286.75 L467.0625,280.5625 C480.937569,278.874992 489.937479,275.875022 494.0625,271.5625 L465.9375,271.5625 L465.9375,263.96875 L489.5625,263.96875 C482.999967,261.718739 476.625031,260.312503 470.4375,259.75 L470.4375,253.84375 C478.312539,254.031251 485.531217,255.249989 492.09375,257.5 L492.09375,263.96875 L498.28125,263.96875 C498.843753,261.90624 499.125,259.562513 499.125,256.9375 Z M470.71875,225.71875 L492.09375,225.71875 L492.09375,222.0625 L503.90625,222.0625 L503.90625,225.71875 L525.5625,225.71875 L525.5625,232.75 L503.90625,232.75 L503.90625,236.96875 L529.21875,236.96875 L529.21875,254.125 L518.25,254.125 L518.25,244.28125 L466.78125,244.28125 L466.78125,236.96875 L492.09375,236.96875 L492.09375,232.75 L470.71875,232.75 L470.71875,225.71875 Z M494.34375,255.8125 C487.781217,253.374988 480.843787,251.875003 473.53125,251.3125 L473.53125,245.40625 C481.218788,245.593751 488.156219,246.531242 494.34375,248.21875 L494.34375,255.8125 Z M543.5,264.25 L543.5,256.09375 L606.5,256.09375 L606.5,264.25 L573.3125,264.25 C570.312485,268.750022 566.750021,272.499985 562.625,275.5 C571.437544,275.875002 579.781211,275.593755 587.65625,274.65625 C586.906246,272.406239 585.968756,270.25001 584.84375,268.1875 L595.25,268.1875 C598.812518,274.18753 601.156244,279.999972 602.28125,285.625 L591.03125,285.625 C591.03125,285.249998 590.937501,284.593755 590.75,283.65625 C590.562499,282.906246 590.375001,282.250003 590.1875,281.6875 C580.062449,283.187508 568.718813,283.9375 556.15625,283.9375 L549.96875,283.9375 L549.96875,275.5 C554.093771,271.56248 557.093741,267.812518 558.96875,264.25 L543.5,264.25 Z M555.875,250.75 L555.875,244.84375 C551.93748,246.531258 547.437525,248.031243 542.375,249.34375 L542.375,242.03125 C554.000058,237.531228 562.531223,230.687546 567.96875,221.5 L582.03125,221.5 C587.468777,230.687546 595.999942,237.531228 607.625,242.03125 L607.625,249.34375 C602.374974,248.031243 597.78127,246.531258 593.84375,244.84375 L593.84375,250.75 L555.875,250.75 Z M575,232.75 C570.687478,236.68752 566.000025,239.968737 560.9375,242.59375 L589.0625,242.59375 C584.187476,239.968737 579.500023,236.68752 575,232.75 Z" id="path-2"></path>
        <filter x="-50%" y="-50%" width="200%" height="200%" filterUnits="objectBoundingBox" id="filter-3">
            <feOffset dx="0" dy="4" in="SourceAlpha" result="shadowOffsetOuter1"></feOffset>
            <feGaussianBlur stdDeviation="2" in="shadowOffsetOuter1" result="shadowBlurOuter1"></feGaussianBlur>
            <feColorMatrix values="0 0 0 0 0.349485676   0 0 0 0 0   0 0 0 0 0.656568878  0 0 0 0.636945199 0" type="matrix" in="shadowBlurOuter1"></feColorMatrix>
        </filter>
    </defs>
    <g id="Page-1" stroke="none" stroke-width="1" fill="none" fill-rule="evenodd">
        <g id="Combined-Shape">
            <use fill="black" fill-opacity="1" filter="url(#filter-3)" xlink:href="#path-2"></use>
            <use fill="url(#linearGradient-1)" fill-rule="evenodd" xlink:href="#path-2"></use>
        </g>
    </g>
</svg>