<?xml version="1.0" encoding="UTF-8" standalone="no"?>
<svg width="600px" height="120px" viewBox="0 0 600 120" version="1.1" xmlns="http://www.w3.org/2000/svg" xmlns:xlink="http://www.w3.org/1999/xlink">
    <!-- Generator: Sketch 41.2 (35397) - http://www.bohemiancoding.com/sketch -->
    <title>Group 11</title>
    <desc>Created with Sketch.</desc>
    <defs></defs>
    <g id="Page-1" stroke="none" stroke-width="1" fill="none" fill-rule="evenodd">
        <g id="Group-11">
            <rect id="Rectangle-4" fill="#ED3A50" x="0" y="0" width="600" height="120" rx="10"></rect>
            <path d="M203.9,44.4 L203.9,49.45 L246.25,49.45 L246.25,44.4 L228,44.4 C227.3,41.7 226.65,39.25 225.95,37.05 L219.85,38.05 C220.7,40.05 221.45,42.15 222.15,44.4 L203.9,44.4 Z M202.2,75.6 L202.2,80.65 L247.95,80.65 L247.95,75.6 L232.75,75.6 C235.55,69 237.9,61.45 239.8,53 L234.25,51.5 C232.05,61.1 229.55,69.1 226.7,75.6 L202.2,75.6 Z M215.9,51.4 L210.4,53.25 C212.7,60.2 214.55,67.45 216.05,74.95 L221.7,73.55 C220,65.25 218.1,57.85 215.9,51.4 Z M259.3,52.9 L269.2,52.9 L269.2,58.25 L259.3,58.25 L259.3,52.9 Z M269.2,48.25 L259.3,48.25 L259.3,43.2 L269.2,43.2 L269.2,48.25 Z M253.8,81.85 C260.3,80.25 266.15,78.4 271.3,76.3 C272.1,77.8 272.8,79.3 273.5,80.8 L277.55,77.95 C275.9,74.45 273.55,70.35 270.5,65.65 L266.55,68.15 C267.35,69.4 268.1,70.65 268.85,71.95 C265.95,73.05 262.8,74.15 259.3,75.15 L259.3,63.1 L274.1,63.1 L274.1,38.5 L254.2,38.5 L254.2,74.2 C254.2,75.45 253.45,76.35 252,76.85 L253.8,81.85 Z M290.85,76.4 C294.55,76.4 296.45,74.5 296.45,70.7 L296.45,38.6 L279,38.6 L279,83.1 L284.2,83.1 L284.2,43.5 L291.25,43.5 L291.25,69.5 C291.25,70.85 290.5,71.55 289.1,71.55 L285.65,71.35 L287.05,76.4 L290.85,76.4 Z M323.3,38.5 L323.3,43.4 L332.8,43.4 C332.6,44.75 332.4,46.1 332.15,47.4 L325,47.4 L325,72.35 L330.1,72.35 L330.1,52.2 L341.35,52.2 L341.35,71.85 L346.45,71.85 L346.45,47.4 L337.25,47.4 C337.5,46.1 337.7,44.8 337.9,43.4 L347.4,43.4 L347.4,38.5 L323.3,38.5 Z M340.05,71.5 L336.55,74.85 C340.05,77.95 342.7,80.8 344.6,83.5 L348.35,79.75 C346.05,77 343.25,74.25 340.05,71.5 Z M333.2,54.55 L333.2,63.25 C333,67.35 332.25,70.65 330.85,73.15 C329.45,75.5 326.7,77.45 322.7,79.05 L325.45,83.4 C329.75,81.75 332.9,79.4 334.8,76.4 C336.8,73.1 337.9,68.7 338.1,63.25 L338.1,54.55 L333.2,54.55 Z M311.25,37.1 C308.25,42.5 304.95,47.15 301.35,51.1 L304.35,55.3 C308,51.1 311.15,46.7 313.75,42.1 C315.75,44.55 318.3,48.2 321.35,53.1 L324.8,49.4 C321.75,45.15 318.55,41.05 315.15,37.1 L311.25,37.1 Z M304.3,58.7 L304.3,63.55 L317.25,63.55 C315.65,66.5 314.1,69.05 312.6,71.25 C311.25,70.1 309.85,68.95 308.45,67.85 L305,71.2 C310.2,75.45 314.25,79.4 317.1,83.1 L320.8,79.35 C319.35,77.7 317.75,76.05 316,74.4 C318.6,71 320.85,67.2 322.85,63.05 L322.85,58.7 L304.3,58.7 Z M313.7,48.25 L310,50.55 C312,53.35 313.55,55.95 314.7,58.3 L318.4,55.65 C317.3,53.55 315.75,51.05 313.7,48.25 Z M377.65,68.4 C376.35,68.7 375,69.05 373.6,69.4 L373.6,43.35 L376.3,43.35 L376.3,46.25 L378.3,46.25 C379,54.25 381.05,61.6 384.45,68.4 C381.95,72.55 378.75,76.1 374.95,79.05 L378.5,83.15 C381.9,80.45 384.85,77.25 387.35,73.5 C389.5,76.9 392.05,80.1 395,83.15 L398.5,79.05 C395.2,75.95 392.4,72.5 390.15,68.75 C393.35,62.4 395.5,54.8 396.55,46 L396.55,41.25 L376.85,41.25 L376.85,38.45 L352.65,38.45 L352.65,43.35 L356.1,43.35 L356.1,72.6 C354.75,72.8 353.4,72.95 352,73.1 L353.3,78.25 C358.5,77.45 363.6,76.6 368.5,75.6 L368.5,83.05 L373.6,83.05 L373.6,74.55 C374.9,74.25 376.25,73.9 377.65,73.6 L377.65,68.4 Z M383.1,46.25 L391.65,46.25 C390.85,52.5 389.35,58.1 387.2,63.05 C385,57.95 383.6,52.35 383.1,46.25 Z M368.5,70.5 C366.1,71 363.7,71.45 361.2,71.85 L361.2,65.05 L368.5,65.05 L368.5,70.5 Z M361.2,60.35 L361.2,54.2 L368.5,54.2 L368.5,60.35 L361.2,60.35 Z M361.2,49.5 L361.2,43.35 L368.5,43.35 L368.5,49.5 L361.2,49.5 Z" id="立即领取" fill="#FFFFFF"></path>
        </g>
    </g>
</svg>