<?xml version="1.0" encoding="UTF-8" standalone="no"?>
<svg width="517px" height="129px" viewBox="0 0 517 129" version="1.1" xmlns="http://www.w3.org/2000/svg" xmlns:xlink="http://www.w3.org/1999/xlink">
    <!-- Generator: Sketch 41.2 (35397) - http://www.bohemiancoding.com/sketch -->
    <title>Combined Shape</title>
    <desc>Created with Sketch.</desc>
    <defs></defs>
    <g id="Page-1" stroke="none" stroke-width="1" fill="none" fill-rule="evenodd">
        <path d="M376.592,86.088 L376.592,90.456 L381.632,90.456 L381.632,100.92 C379.712,101.592 377.744,102.12 375.824,102.552 L376.976,106.92 C378.512,106.44 380.096,105.864 381.632,105.288 L381.632,115.512 C381.632,116.76 381.056,117.432 380,117.432 C378.896,117.432 377.744,117.336 376.544,117.144 L377.504,121.368 L381.536,121.368 C384.512,121.368 386.048,119.784 386.048,116.616 L386.048,103.464 C387.632,102.792 389.216,102.024 390.752,101.208 L390.752,96.84 C389.216,97.704 387.632,98.472 386.048,99.192 L386.048,90.456 L390.848,90.456 L390.848,86.088 L386.048,86.088 L386.048,77.688 L381.632,77.688 L381.632,86.088 L376.592,86.088 Z M392.24,120.648 C395.6,119.544 398.48,118.44 400.976,117.384 L400.208,113.448 C399.2,113.928 398.144,114.36 397.088,114.84 L397.088,99.432 L406.208,99.432 C406.448,101.832 406.784,103.992 407.216,105.912 C408.32,111.24 409.712,115.176 411.392,117.768 C413.024,120.264 414.608,121.56 416.144,121.56 C417.92,121.56 419.264,118.008 420.224,110.904 L416.432,108.84 C416.048,113.736 415.712,116.184 415.424,116.232 C414.944,116.232 414.32,115.272 413.504,113.4 C412.64,111.48 411.824,108.408 411.104,104.232 C410.864,102.888 410.672,101.256 410.528,99.432 L419.168,99.432 L419.168,95.016 L410.24,95.016 C410.048,91.992 409.952,88.44 409.904,84.312 C413.072,83.688 415.808,83.064 418.16,82.392 L415.52,78.6 C409.952,80.136 402.368,81.576 392.672,82.824 L392.672,114.504 C392.672,115.656 392.144,116.424 391.088,116.808 L392.24,120.648 Z M405.824,95.016 L397.088,95.016 L397.088,86.328 C400.064,85.944 402.848,85.512 405.44,85.128 C405.44,88.68 405.584,91.992 405.824,95.016 Z M404.432,111 L401.216,113.256 C403.424,116.472 405.152,119.4 406.448,122.088 L409.904,119.688 C408.608,117.192 406.784,114.264 404.432,111 Z M432.848,95.064 L443.888,95.064 L443.888,102.408 L432.848,102.408 L432.848,95.064 Z M432.608,106.632 L443.888,106.632 L443.888,120.312 L448.496,120.312 L448.496,106.632 L460.4,106.632 L460.4,113.784 C460.4,115.656 459.584,116.616 458.048,116.616 C456.416,116.616 454.688,116.52 452.816,116.376 L454.016,120.84 L459.536,120.84 C463.184,120.84 465.056,119.016 465.056,115.416 L465.056,79.272 L428.24,79.272 L428.24,102.792 C428.144,109.128 426.656,114.36 423.776,118.488 L427.28,121.608 C430.256,117.672 432.032,112.68 432.608,106.632 Z M460.4,102.408 L448.496,102.408 L448.496,95.064 L460.4,95.064 L460.4,102.408 Z M460.4,90.888 L448.496,90.888 L448.496,83.688 L460.4,83.688 L460.4,90.888 Z M443.888,83.688 L443.888,90.888 L432.848,90.888 L432.848,83.688 L443.888,83.688 Z M487.568,107.16 C486.752,109.656 485.648,111.672 484.208,113.208 C482.288,115.08 479.552,116.808 475.904,118.392 L478.784,121.992 C482.864,120.024 485.936,117.816 488,115.32 C489.584,113.304 490.88,110.568 491.84,107.16 L502.688,107.16 C502.496,111.48 502.064,114.264 501.488,115.608 C500.912,116.856 499.76,117.528 497.936,117.528 C495.872,117.528 493.664,117.432 491.264,117.336 L492.464,121.608 L500.144,121.608 C502.064,121.512 503.504,120.888 504.416,119.832 C505.328,118.728 506,116.808 506.384,114.024 C506.672,111.528 506.912,108.408 507.056,104.568 C508.88,106.056 510.992,107.496 513.392,108.888 L516.368,105.192 C511.376,102.888 507.68,100.344 505.328,97.512 L514.784,97.512 L514.784,93.384 L491.552,93.384 C492.32,91.992 493.04,90.552 493.712,89.064 L512.144,89.064 L512.144,85.032 L505.424,85.032 C506.816,83.208 508.016,81.048 509.024,78.648 L505.232,77.304 C504.272,79.8 503.072,81.96 501.584,83.88 L503.696,85.032 L495.2,85.032 C495.92,82.728 496.496,80.328 496.976,77.736 L492.464,77.16 C492.032,79.944 491.408,82.536 490.592,85.032 L484.208,85.032 L486.704,83.88 C485.744,81.624 484.64,79.512 483.392,77.496 L479.456,78.792 C480.608,80.616 481.76,82.68 482.816,85.032 L475.856,85.032 L475.856,89.064 L488.96,89.064 C488.24,90.552 487.424,91.992 486.512,93.384 L473.216,93.384 L473.216,97.512 L483.2,97.512 C480.08,100.776 476.24,103.368 471.632,105.336 L474.128,109.176 C476.816,107.88 479.264,106.392 481.568,104.664 L481.568,107.16 L487.568,107.16 Z M488.768,97.512 L500.576,97.512 C501.728,99.336 503.264,101.16 505.184,102.936 L483.68,102.936 C485.504,101.304 487.232,99.48 488.768,97.512 Z M0.84,40.32 L23.88,82.08 L8.64,82.08 L8.64,90 L28.32,90 L28.44,90.12 L28.44,100.08 L8.64,100.08 L8.64,108 L28.44,108 L28.44,126 L43.56,126 L43.56,108 L63.48,108 L63.48,100.08 L43.56,100.08 L43.56,90.12 L43.68,90 L63.48,90 L63.48,82.08 L48.12,82.08 L71.16,40.32 L54.12,40.32 L36,76.44 L17.88,40.32 L0.84,40.32 Z M112.0896,2.6208 C107.9424,6.9408 102.7584,10.9152 96.5376,14.7168 C90.3168,18.1728 84.4416,20.592 78.912,21.9744 L78.912,42.0192 C90.3168,38.736 99.648,33.7248 107.0784,26.9856 L107.0784,126 L127.296,126 L127.296,2.6208 L112.0896,2.6208 Z M194.688,0.2016 C180.1728,0.2016 168.9408,6.0768 160.992,18.1728 C153.3888,29.5776 149.5872,44.9568 149.5872,64.3104 C149.5872,83.664 153.3888,99.0432 160.992,110.448 C168.9408,122.3712 180.1728,128.4192 194.688,128.4192 C209.0304,128.4192 220.2624,122.3712 228.384,110.448 C235.9872,99.0432 239.7888,83.664 239.7888,64.3104 C239.7888,44.9568 235.9872,29.5776 228.384,18.1728 C220.2624,6.0768 209.0304,0.2016 194.688,0.2016 Z M194.688,17.3088 C204.3648,17.3088 211.2768,22.6656 215.424,33.7248 C218.1888,41.1552 219.5712,51.3504 219.5712,64.3104 C219.5712,77.0976 218.1888,87.2928 215.424,94.896 C211.2768,105.7824 204.3648,111.312 194.688,111.312 C184.8384,111.312 177.9264,105.7824 173.952,94.896 C171.1872,87.2928 169.8048,77.0976 169.8048,64.3104 C169.8048,51.3504 171.1872,41.1552 173.952,33.7248 C177.9264,22.6656 184.8384,17.3088 194.688,17.3088 Z M298.368,0.2016 C283.8528,0.2016 272.6208,6.0768 264.672,18.1728 C257.0688,29.5776 253.2672,44.9568 253.2672,64.3104 C253.2672,83.664 257.0688,99.0432 264.672,110.448 C272.6208,122.3712 283.8528,128.4192 298.368,128.4192 C312.7104,128.4192 323.9424,122.3712 332.064,110.448 C339.6672,99.0432 343.4688,83.664 343.4688,64.3104 C343.4688,44.9568 339.6672,29.5776 332.064,18.1728 C323.9424,6.0768 312.7104,0.2016 298.368,0.2016 Z M298.368,17.3088 C308.0448,17.3088 314.9568,22.6656 319.104,33.7248 C321.8688,41.1552 323.2512,51.3504 323.2512,64.3104 C323.2512,77.0976 321.8688,87.2928 319.104,94.896 C314.9568,105.7824 308.0448,111.312 298.368,111.312 C288.5184,111.312 281.6064,105.7824 277.632,94.896 C274.8672,87.2928 273.4848,77.0976 273.4848,64.3104 C273.4848,51.3504 274.8672,41.1552 277.632,33.7248 C281.6064,22.6656 288.5184,17.3088 298.368,17.3088 Z" id="Combined-Shape" fill="#ED3A50"></path>
    </g>
</svg>