<?xml version="1.0" encoding="UTF-8" standalone="no"?>
<svg width="425px" height="169px" viewBox="0 0 425 169" version="1.1" xmlns="http://www.w3.org/2000/svg" xmlns:xlink="http://www.w3.org/1999/xlink">
    <!-- Generator: Sketch 41.2 (35397) - http://www.bohemiancoding.com/sketch -->
    <title>Combined Shape Copy</title>
    <desc>Created with Sketch.</desc>
    <defs></defs>
    <g id="Page-1" stroke="none" stroke-width="1" fill="none" fill-rule="evenodd">
        <path d="M0,7.401787 C0,3.56112054 3.11174144,0.447645202 6.94514442,0.447645202 L417.360411,0.447645202 C421.196108,0.447645202 424.305556,3.56265442 424.305556,7.401787 L424.305556,161.549059 C424.305556,165.389725 421.193814,168.503201 417.360411,168.503201 L6.94514442,168.503201 C3.10944707,168.503201 0,165.388192 0,161.549059 L0,7.401787 Z M399.305556,99.7532008 C407.359708,99.7532008 413.888889,93.22402 413.888889,85.1698674 C413.888889,77.1157148 407.359708,70.5865341 399.305556,70.5865341 C391.251403,70.5865341 384.722222,77.1157148 384.722222,85.1698674 C384.722222,93.22402 391.251403,99.7532008 399.305556,99.7532008 Z M368.765625,104.205458 C371.760432,104.335667 374.8854,103.749735 378.140625,102.447645 L378.140625,108.30702 C375.406236,109.218483 372.671889,109.674208 369.9375,109.674208 L360.757812,109.674208 L360.757812,116.705458 L379.507812,116.705458 L379.507812,122.174208 L373.648438,122.174208 L373.648438,146.58827 L365.835938,146.58827 L365.835938,122.174208 L360.757812,122.174208 L360.757812,132.135145 C361.148439,139.557057 357.697953,144.635132 350.40625,147.36952 L350.40625,142.096083 C352.098967,140.273157 352.880209,137.538809 352.75,133.892958 L352.75,104.205458 L368.765625,104.205458 Z M339.078125,102.447645 L346.890625,102.447645 L346.890625,107.721083 L351.1875,107.721083 L351.1875,113.189833 L346.890625,113.189833 L346.890625,121.783583 L349.234375,121.197645 C350.015629,121.067436 350.601561,120.937229 350.992188,120.80702 L350.992188,125.885145 L349.234375,126.471083 C348.192703,126.991919 347.411461,127.317436 346.890625,127.447645 L346.890625,140.533583 C347.020834,144.960688 344.937521,147.109104 340.640625,146.978895 L335.367188,146.978895 L335.367188,141.90077 L337.710938,141.90077 C338.752609,142.030979 339.208334,141.445048 339.078125,140.142958 L339.078125,129.40077 L336.148438,129.986708 C335.236975,130.116917 334.520836,130.247124 334,130.377333 L334,123.541395 C335.953135,123.541395 337.645826,123.411188 339.078125,123.15077 L339.078125,113.189833 L334.390625,113.189833 L334.390625,107.721083 L339.078125,107.721083 L339.078125,102.447645 Z M91.229318,21.4476452 L91.229318,146.104685 L56.7835096,146.104685 L56.7835096,64.4212993 C51.2097264,68.6573746 45.8171719,72.0851999 40.6056846,74.704878 C35.3941972,77.3245561 28.8590344,79.832721 21,82.2294478 L21,54.3049333 C32.5934692,50.5704985 41.5949941,46.0836702 48.0048449,40.844314 C54.4146956,35.6049577 59.4310253,29.1394661 63.0539844,21.4476452 L91.229318,21.4476452 Z M114.271906,78.2491036 L184.501224,78.2491036 L184.501224,104.585098 L114.271906,104.585098 L114.271906,78.2491036 Z M224.081485,23.5378035 L304.928807,23.5378035 L304.928807,50.709861 L250.16666,50.709861 L247.240439,69.1032538 C251.030611,67.3196432 254.778924,65.9819553 258.48549,65.0901499 C262.192056,64.1983446 265.856763,63.7524486 269.479723,63.7524486 C281.742046,63.7524486 291.6911,67.4589589 299.327183,74.8720907 C306.963266,82.2852224 310.78125,91.6211693 310.78125,102.880212 C310.78125,110.794984 308.816521,118.403084 304.887004,125.70474 C300.957486,133.006396 295.383787,138.580096 288.165737,142.426006 C280.947688,146.271916 271.709281,148.194843 260.450239,148.194843 C252.368253,148.194843 245.442931,147.428459 239.674066,145.895669 C233.9052,144.362878 229.000344,142.077662 224.959351,139.03995 C220.918358,136.002238 217.64381,132.560478 215.135607,128.714568 C212.627405,124.868657 210.537268,120.075276 208.865133,114.334279 L243.310941,110.571994 C244.147008,116.090039 246.097803,120.284248 249.163384,123.154747 C252.228965,126.025245 255.879738,127.460473 260.115813,127.460473 C264.853529,127.460473 268.769053,125.662955 271.862503,122.067864 C274.955953,118.472774 276.502654,113.108088 276.502654,105.973646 C276.502654,98.6719897 274.942018,93.321238 271.8207,89.9212302 C268.699381,86.5212224 264.546975,84.821244 259.363356,84.821244 C256.074824,84.821244 252.897816,85.6294305 249.832235,87.2458276 C247.546984,88.4163221 245.038819,90.534328 242.307665,93.5999088 L213.296268,89.4195922 L224.081485,23.5378035 Z" id="Combined-Shape-Copy" fill="#FFFFFF"></path>
    </g>
</svg>