<?xml version="1.0" encoding="UTF-8" standalone="no"?>
<svg width="682px" height="51px" viewBox="0 0 682 51" version="1.1" xmlns="http://www.w3.org/2000/svg" xmlns:xlink="http://www.w3.org/1999/xlink">
    <!-- Generator: Sketch 41.2 (35397) - http://www.bohemiancoding.com/sketch -->
    <title>淘宝不等双十一，LA特卖有新衣 Copy 2</title>
    <desc>Created with Sketch.</desc>
    <defs>
        <linearGradient x1="0%" y1="10.7621771%" x2="112.943221%" y2="111.278356%" id="linearGradient-1">
            <stop stop-color="#FEF500" offset="0%"></stop>
            <stop stop-color="#FBF8CC" offset="48.5693507%"></stop>
            <stop stop-color="#F8E81C" offset="100%"></stop>
        </linearGradient>
    </defs>
    <g id="Page-1" stroke="none" stroke-width="1" fill="none" fill-rule="evenodd">
        <path d="M4.616,1.688 L1.112,5.096 C4.568,7.448 7.256,9.608 9.176,11.624 L12.632,8.168 C10.472,6.008 7.784,3.848 4.616,1.688 Z M4.28,13.544 L0.776,16.952 C4.28,19.448 7.016,21.752 8.936,23.96 L12.392,20.504 C10.184,18.2 7.496,15.848 4.28,13.544 Z M8.792,26.408 C6.68,32.168 4.184,37.784 1.304,43.256 L5.816,45.224 C8.504,39.896 10.904,34.184 13.112,28.136 L8.792,26.408 Z M20.984,19.016 L24.152,19.016 L24.152,22.664 L14.36,22.664 L14.36,26.936 L24.152,26.936 L24.152,34.712 L20.408,34.712 L20.408,29.048 L16.088,29.048 L16.088,38.792 L36.392,38.792 L36.392,29.048 L32.168,29.048 L32.168,34.712 L28.76,34.712 L28.76,26.936 L37.592,26.936 L37.592,22.664 L28.76,22.664 L28.76,19.016 L36.152,19.016 L36.152,14.744 L23.528,14.744 C23.912,13.976 24.248,13.112 24.632,12.248 L20.408,11.336 C19.352,14.12 17.576,16.808 15.032,19.304 L18.776,21.704 C19.544,20.84 20.312,19.976 20.984,19.016 Z M18.68,0.824 C17.192,6.008 14.36,10.424 10.136,13.976 L13.064,17.816 C15.656,15.512 17.816,12.92 19.64,10.04 L39.128,10.04 C39.032,25.592 38.84,34.664 38.504,37.256 C38.168,39.848 36.872,41.144 34.616,41.144 C32.648,41.144 30.344,41.048 27.656,40.904 L28.808,45.368 C31.928,45.512 34.136,45.608 35.432,45.608 C39.896,45.608 42.392,43.448 42.968,39.224 C43.448,34.952 43.736,23.672 43.736,5.432 L21.992,5.432 C22.52,4.184 23,2.84 23.384,1.4 L18.68,0.824 Z M68.408,20.408 L68.408,27.128 L56.312,27.128 L56.312,31.832 L68.408,31.832 L68.408,40.424 L50.792,40.424 L50.792,45.08 L91.16,45.08 L91.16,40.424 L84.296,40.424 L86.744,38.744 C85.544,36.92 83.864,34.76 81.752,32.312 L77.96,34.664 C79.64,36.728 81.032,38.648 82.184,40.424 L73.496,40.424 L73.496,31.832 L85.304,31.832 L85.304,27.128 L73.496,27.128 L73.496,20.408 L86.888,20.408 L86.888,16.28 L91.064,16.28 L91.064,5.96 L73.88,5.96 C73.4,4.376 72.92,2.936 72.392,1.64 L67.016,2.504 C67.544,3.56 68.024,4.712 68.456,5.96 L50.84,5.96 L50.84,16.376 L55.208,16.376 L55.208,20.408 L68.408,20.408 Z M55.928,15.704 L55.928,10.808 L86.024,10.808 L86.024,15.704 L55.928,15.704 Z M98.264,3.656 L98.264,8.552 L118.616,8.552 C114.392,16.808 107.096,23.816 96.728,29.672 L100.04,34.04 C106.568,30.104 112.04,25.688 116.408,20.792 L116.408,46.088 L121.592,46.088 L121.592,13.736 C122.6,12.056 123.512,10.328 124.328,8.552 L139.736,8.552 L139.736,3.656 L98.264,3.656 Z M127.64,16.808 L124.04,20.264 C129.704,24.92 134.12,29.288 137.192,33.32 L141.128,29.336 C137.48,25.16 132.968,20.984 127.64,16.808 Z M150.776,15.368 L150.776,19.688 L164.504,19.688 L164.504,22.952 L145.448,22.952 L145.448,27.272 L174.824,27.272 L174.824,30.68 L148.28,30.68 L148.28,35.048 L174.824,35.048 L174.824,40.04 C174.824,41.096 174.152,41.624 172.856,41.624 C170.936,41.624 168.92,41.48 166.76,41.288 L167.864,45.992 L174.536,45.992 C178.04,45.992 179.816,44.408 179.816,41.24 L179.816,35.048 L186.44,35.048 L186.44,30.68 L179.816,30.68 L179.816,27.272 L188.504,27.272 L188.504,22.952 L169.496,22.952 L169.496,19.688 L183.032,19.688 L183.032,15.368 L169.496,15.368 L169.496,13.112 L164.504,13.112 L164.504,15.368 L150.776,15.368 Z M157.256,35.528 L153.224,38.072 C155.624,40.472 157.496,42.632 158.888,44.648 L162.824,41.912 C161.48,40.088 159.656,37.928 157.256,35.528 Z M153.416,8.84 L153.944,8.84 C155.144,10.568 156.2,12.344 157.112,14.216 L161.624,12.536 C160.952,11.384 160.136,10.136 159.176,8.84 L166.328,8.84 L166.328,4.664 L155.192,4.664 C155.48,3.896 155.72,3.128 156.008,2.264 L151.256,1.208 C150.104,4.952 148.184,8.552 145.4,11.912 L149.768,14.648 C151.112,12.92 152.36,10.952 153.416,8.84 Z M172.856,8.696 L174.776,8.696 C176.024,10.424 177.08,12.248 178.04,14.168 L182.408,12.488 C181.784,11.288 180.968,10.04 180.008,8.696 L187.304,8.696 L187.304,4.52 L174.536,4.52 C174.776,3.752 175.016,2.984 175.256,2.168 L170.552,1.16 C169.736,4.376 168.296,7.4 166.232,10.28 L170.408,12.824 C171.272,11.576 172.088,10.184 172.856,8.696 Z M197.768,12.008 L194.168,15.512 C197.48,19.304 200.456,23 203.096,26.552 C200.648,31.976 197.24,36.632 192.872,40.568 L196.28,44.552 C200.504,40.808 203.912,36.44 206.504,31.448 C207.992,33.656 209.336,35.864 210.536,38.072 L214.424,34.184 C212.744,31.4 210.92,28.664 208.904,25.928 C210.92,20.456 212.072,14.408 212.408,7.688 L212.408,3.896 L194.216,3.896 L194.216,8.744 L207.512,8.744 C207.128,13.064 206.36,17.144 205.208,20.936 C202.904,17.96 200.408,14.984 197.768,12.008 Z M214.472,3.896 L214.472,8.744 L215.816,8.744 C216.248,15.752 218.264,22.664 221.816,29.384 C218.936,33.56 215.288,37.544 210.968,41.336 L214.424,45.512 C218.264,41.768 221.624,37.928 224.504,33.992 C227,37.832 230.024,41.672 233.672,45.464 L237.224,41.288 C233.336,37.448 230.12,33.512 227.528,29.432 C231.56,22.712 234.008,15.656 234.968,8.36 L234.968,3.896 L214.472,3.896 Z M220.328,8.744 L230.312,8.744 C229.352,14.312 227.528,19.592 224.792,24.584 C222.2,19.496 220.712,14.216 220.328,8.744 Z M260.6,1.64 L260.6,16.808 L241.544,16.808 L241.544,21.704 L260.6,21.704 L260.6,45.992 L265.688,45.992 L265.688,21.704 L284.6,21.704 L284.6,16.808 L265.688,16.808 L265.688,1.64 L260.6,1.64 Z M289.16,20.888 L289.16,25.88 L332.792,25.88 L332.792,20.888 L289.16,20.888 Z M343.976,33.8 C342.92,33.8 342.056,34.136 341.336,34.808 C340.616,35.48 340.28,36.344 340.28,37.448 C340.28,38.456 340.616,39.32 341.336,39.992 C342.056,40.664 342.92,41 343.976,41 C344.312,41 344.6,40.952 344.888,40.904 C344.6,43.592 343.064,45.8 340.184,47.576 L341.864,50.312 C346.232,47.96 348.44,44.408 348.44,39.704 C348.44,35.768 346.952,33.8 343.976,33.8 Z M386.36,6.728 L386.36,41 L410.456,41 L410.456,36.2 L391.928,36.2 L391.928,6.728 L386.36,6.728 Z M424.52,6.728 L411.416,41 L417.416,41 L420.536,32.408 L434.888,32.408 L438.008,41 L444.008,41 L430.904,6.728 L424.52,6.728 Z M422.216,27.8 L427.64,12.776 L427.832,12.776 L433.208,27.8 L422.216,27.8 Z M474.584,1.496 L474.584,6.2 L466.76,6.2 L466.76,10.76 L474.584,10.76 L474.584,14.936 L464.12,14.936 L464.12,19.64 L490.04,19.64 L490.04,14.936 L479.624,14.936 L479.624,10.76 L487.928,10.76 L487.928,6.2 L479.624,6.2 L479.624,1.496 L474.584,1.496 Z M465.176,23.864 L465.176,28.568 L479.672,28.568 L479.672,39.416 C479.672,40.664 479.192,41.288 478.232,41.288 C476.504,41.288 474.68,41.144 472.808,40.952 L473.816,45.656 L479.912,45.656 C482.984,45.656 484.568,43.976 484.568,40.616 L484.568,28.568 L489.56,28.568 L489.56,23.864 L484.568,23.864 L484.568,21.272 L479.672,21.272 L479.672,23.864 L465.176,23.864 Z M469.448,29.72 L465.56,32.168 C467.864,34.856 469.688,37.352 471.032,39.608 L475.016,36.824 C473.672,34.808 471.848,32.456 469.448,29.72 Z M451.448,15.896 L454.52,15.896 L454.52,27.368 C451.64,28.232 448.76,28.904 445.784,29.432 L446.984,34.28 C449.528,33.608 452.024,32.84 454.52,32.024 L454.52,45.992 L459.368,45.992 L459.368,30.296 C460.616,29.816 461.912,29.288 463.208,28.76 L463.208,24.056 C461.96,24.632 460.712,25.16 459.368,25.688 L459.368,15.896 L462.968,15.896 L462.968,11.096 L459.368,11.096 L459.368,1.64 L454.52,1.64 L454.52,11.096 L452.12,11.096 C452.312,9.368 452.408,7.544 452.504,5.72 L447.992,5.384 C447.8,10.952 446.984,16.28 445.544,21.32 L449.912,22.568 C450.536,20.408 451.064,18.2 451.448,15.896 Z M500.6,22.712 L498.248,26.216 C501.176,27.176 504.056,28.472 506.888,30.152 L495.944,30.152 L495.944,34.904 L513.416,34.904 L512.408,35.912 C509.624,38.216 504.296,40.136 496.328,41.72 L499.016,45.992 C506.888,44.36 512.552,42.056 516.008,39.08 C521.672,40.856 527.192,43.208 532.616,46.184 L535.448,41.816 C530.456,39.464 524.936,37.4 518.936,35.672 C519.08,35.432 519.224,35.192 519.416,34.904 L536.456,34.904 L536.456,30.152 L521.288,30.152 C521.576,28.904 521.768,27.56 521.864,26.168 L521.864,18.344 L517.016,18.344 L517.016,26.168 C516.872,27.512 516.584,28.856 516.2,30.152 L508.28,30.152 L510.392,26.936 C507.416,25.304 504.152,23.864 500.6,22.712 Z M504.632,17.72 L502.28,21.176 C505.64,22.136 508.904,23.48 512.072,25.16 L514.568,21.368 C511.544,19.928 508.232,18.68 504.632,17.72 Z M496.472,12.632 L496.472,17.192 L530.36,17.192 C529.64,19.784 528.824,22.088 527.864,24.056 L532.568,25.4 C533.768,22.232 534.728,19.016 535.448,15.752 L535.448,12.632 L518.648,12.632 L518.648,9.416 L532.088,9.416 L532.088,4.904 L518.648,4.904 L518.648,1.64 L513.752,1.64 L513.752,4.904 L500.024,4.904 L500.024,9.416 L513.752,9.416 L513.752,12.632 L496.472,12.632 Z M557.624,19.736 L575.096,19.736 L575.096,23.576 L557.624,23.576 L557.624,19.736 Z M575.096,27.896 L575.096,31.64 L557.624,31.64 L557.624,27.896 L575.096,27.896 Z M575.096,35.96 L575.096,39.848 C575.096,40.904 574.52,41.432 573.368,41.432 C571.832,41.432 570.152,41.336 568.376,41.192 L569.576,45.704 L574.952,45.704 C578.168,45.608 579.8,44.216 579.8,41.432 L579.8,15.416 L558.104,15.416 C558.92,14.024 559.688,12.632 560.456,11.192 L585.464,11.192 L585.464,6.344 L562.568,6.344 C563.096,4.904 563.576,3.416 564.056,1.88 L558.92,1.256 C558.392,2.984 557.768,4.664 557.048,6.344 L543.08,6.344 L543.08,11.192 L554.648,11.192 C551.48,16.664 547.208,21.56 541.784,25.832 L545.048,30.104 C547.928,27.752 550.568,25.208 552.92,22.52 L552.92,45.944 L557.624,45.944 L557.624,35.96 L575.096,35.96 Z M630.824,1.88 C626.12,3.704 620.84,4.664 614.888,4.76 L614.888,25.592 C614.696,32.648 613.208,38.168 610.52,42.152 L614.12,45.944 C617.624,40.856 619.496,34.088 619.736,25.592 L619.736,21.032 L624.92,21.032 L624.92,46.04 L629.864,46.04 L629.864,21.032 L634.28,21.032 L634.28,16.28 L619.736,16.28 L619.736,8.84 C624.68,8.552 629.192,7.736 633.272,6.392 L630.824,1.88 Z M590.744,5.24 L590.744,9.848 L612.776,9.848 L612.776,5.24 L604.04,5.24 C603.464,3.704 602.936,2.312 602.36,1.064 L597.176,1.928 C597.848,2.936 598.472,4.04 599.048,5.24 L590.744,5.24 Z M590.264,16.136 L590.264,20.696 L599.384,20.696 L599.384,24.584 L591.032,24.584 L591.032,29.144 L599.384,29.144 L599.384,40.52 C599.384,41.432 598.808,41.912 597.752,41.912 C597.176,41.912 596.504,41.768 595.784,41.576 L596.888,46.184 L599.384,46.184 C602.696,46.184 604.376,44.696 604.376,41.72 L604.376,29.144 L612.248,29.144 L612.248,24.584 L604.376,24.584 L604.376,20.696 L613.064,20.696 L613.064,16.136 L608.408,16.136 C609.032,14.744 609.608,13.256 610.184,11.624 L605.72,10.04 C605.192,12.152 604.568,14.168 603.848,16.136 L599.624,16.136 C598.952,13.784 598.28,11.768 597.56,10.04 L593.144,11.72 C593.912,13.064 594.584,14.552 595.16,16.136 L590.264,16.136 Z M593.72,31.016 C592.904,34.904 591.464,38.6 589.4,42.056 L593.576,44.696 C595.592,41.096 597.128,36.872 598.232,31.976 L593.72,31.016 Z M609.272,30.728 L605.144,31.832 C606.2,34.664 607.112,37.592 607.832,40.568 L612.056,38.936 C611.384,36.44 610.424,33.704 609.272,30.728 Z M659.432,13.64 C661.448,26.984 667.736,37.544 678.248,45.272 L681.464,40.04 C676.568,36.776 672.728,32.84 669.848,28.328 C673.4,26.504 676.616,23.816 679.496,20.36 L675.944,16.808 C673.304,20.072 670.52,22.616 667.64,24.392 C666.008,20.984 664.904,17.288 664.232,13.256 L680.792,13.256 L680.792,8.408 L662.744,8.408 C661.928,5.912 661.064,3.656 660.2,1.64 L654.776,2.504 C655.784,4.328 656.696,6.296 657.512,8.408 L639.224,8.408 L639.224,13.256 L654.344,13.256 C650.84,19.928 645.416,25.4 638.024,29.72 L640.712,34.04 C643.256,32.408 645.656,30.68 647.864,28.808 L647.864,38.504 C647.864,39.656 647.192,40.472 645.944,40.952 L647.096,45.704 C653.912,43.928 659.816,42.056 664.712,40.136 L663.8,35.24 C660.392,36.776 656.744,38.12 652.856,39.272 L652.856,23.816 C655.496,20.744 657.704,17.336 659.432,13.64 Z" id="淘宝不等双十一，LA特卖有新衣-Copy-2" fill="url(#linearGradient-1)"></path>
    </g>
</svg>